<mxfile host="www.draw.io" modified="2020-03-02T10:42:14.511Z" agent="Mozilla/5.0 (Windows NT 10.0; Win64; x64) AppleWebKit/537.36 (KHTML, like Gecko) Chrome/78.0.3904.108 Safari/537.36" etag="9wkZ7R44aHdyClNdIb2O" version="12.7.9" type="github">
  <diagram id="M7gBzPvNkSfiM21ggyCj" name="第 1 页">
    <mxGraphModel dx="1185" dy="594" grid="1" gridSize="10" guides="1" tooltips="1" connect="1" arrows="1" fold="1" page="1" pageScale="1" pageWidth="827" pageHeight="1169" math="0" shadow="0">
      <root>
        <mxCell id="0" />
        <mxCell id="1" parent="0" />
        <mxCell id="9aQ4GL0z26vqEylwEJ86-1" value="" style="rounded=0;whiteSpace=wrap;html=1;" vertex="1" parent="1">
          <mxGeometry x="180" y="80" width="540" height="380" as="geometry" />
        </mxCell>
        <mxCell id="9aQ4GL0z26vqEylwEJ86-2" value="机器" style="text;html=1;align=center;verticalAlign=middle;resizable=0;points=[];autosize=1;" vertex="1" parent="1">
          <mxGeometry x="430" y="90" width="40" height="20" as="geometry" />
        </mxCell>
        <mxCell id="9aQ4GL0z26vqEylwEJ86-7" style="edgeStyle=orthogonalEdgeStyle;rounded=0;orthogonalLoop=1;jettySize=auto;html=1;entryX=0.75;entryY=1;entryDx=0;entryDy=0;" edge="1" parent="1" source="9aQ4GL0z26vqEylwEJ86-5" target="9aQ4GL0z26vqEylwEJ86-6">
          <mxGeometry relative="1" as="geometry" />
        </mxCell>
        <mxCell id="9aQ4GL0z26vqEylwEJ86-8" value="写入日志" style="text;html=1;align=center;verticalAlign=middle;resizable=0;points=[];labelBackgroundColor=#ffffff;" vertex="1" connectable="0" parent="9aQ4GL0z26vqEylwEJ86-7">
          <mxGeometry x="0.1818" y="1" relative="1" as="geometry">
            <mxPoint x="15" y="-1" as="offset" />
          </mxGeometry>
        </mxCell>
        <mxCell id="9aQ4GL0z26vqEylwEJ86-5" value="Tomcat Server" style="rounded=0;whiteSpace=wrap;html=1;" vertex="1" parent="1">
          <mxGeometry x="390" y="160" width="120" height="60" as="geometry" />
        </mxCell>
        <mxCell id="9aQ4GL0z26vqEylwEJ86-6" value="本地磁盘" style="rounded=0;whiteSpace=wrap;html=1;" vertex="1" parent="1">
          <mxGeometry x="210" y="120" width="120" height="50" as="geometry" />
        </mxCell>
        <mxCell id="9aQ4GL0z26vqEylwEJ86-9" value="" style="rounded=0;whiteSpace=wrap;html=1;" vertex="1" parent="1">
          <mxGeometry x="210" y="230" width="460" height="210" as="geometry" />
        </mxCell>
        <mxCell id="9aQ4GL0z26vqEylwEJ86-10" value="Flume 进程：Agent" style="text;html=1;strokeColor=none;fillColor=none;align=center;verticalAlign=middle;whiteSpace=wrap;rounded=0;" vertex="1" parent="1">
          <mxGeometry x="375" y="240" width="130" height="30" as="geometry" />
        </mxCell>
        <mxCell id="9aQ4GL0z26vqEylwEJ86-11" value="source" style="rounded=0;whiteSpace=wrap;html=1;" vertex="1" parent="1">
          <mxGeometry x="235" y="250" width="70" height="35" as="geometry" />
        </mxCell>
        <mxCell id="9aQ4GL0z26vqEylwEJ86-25" style="edgeStyle=orthogonalEdgeStyle;rounded=0;orthogonalLoop=1;jettySize=auto;html=1;entryX=0;entryY=0.5;entryDx=0;entryDy=0;" edge="1" parent="1" source="9aQ4GL0z26vqEylwEJ86-12" target="9aQ4GL0z26vqEylwEJ86-24">
          <mxGeometry relative="1" as="geometry" />
        </mxCell>
        <mxCell id="9aQ4GL0z26vqEylwEJ86-12" value="source" style="rounded=0;whiteSpace=wrap;html=1;" vertex="1" parent="1">
          <mxGeometry x="235" y="310" width="70" height="35" as="geometry" />
        </mxCell>
        <mxCell id="9aQ4GL0z26vqEylwEJ86-13" style="edgeStyle=orthogonalEdgeStyle;rounded=0;orthogonalLoop=1;jettySize=auto;html=1;entryX=0.5;entryY=0;entryDx=0;entryDy=0;" edge="1" parent="1" source="9aQ4GL0z26vqEylwEJ86-6" target="9aQ4GL0z26vqEylwEJ86-11">
          <mxGeometry relative="1" as="geometry">
            <Array as="points">
              <mxPoint x="270" y="220" />
              <mxPoint x="270" y="220" />
            </Array>
          </mxGeometry>
        </mxCell>
        <mxCell id="9aQ4GL0z26vqEylwEJ86-14" value="读取日志" style="text;html=1;align=center;verticalAlign=middle;resizable=0;points=[];labelBackgroundColor=#ffffff;" vertex="1" connectable="0" parent="9aQ4GL0z26vqEylwEJ86-13">
          <mxGeometry x="0.25" y="3" relative="1" as="geometry">
            <mxPoint x="-3" y="-10" as="offset" />
          </mxGeometry>
        </mxCell>
        <mxCell id="9aQ4GL0z26vqEylwEJ86-16" style="edgeStyle=orthogonalEdgeStyle;rounded=0;orthogonalLoop=1;jettySize=auto;html=1;entryX=0;entryY=0.5;entryDx=0;entryDy=0;" edge="1" parent="1" source="9aQ4GL0z26vqEylwEJ86-15" target="9aQ4GL0z26vqEylwEJ86-18">
          <mxGeometry relative="1" as="geometry">
            <mxPoint x="130" y="310" as="targetPoint" />
          </mxGeometry>
        </mxCell>
        <mxCell id="9aQ4GL0z26vqEylwEJ86-17" value="http请求&lt;br&gt;用户行为日志" style="text;html=1;align=center;verticalAlign=middle;resizable=0;points=[];labelBackgroundColor=#ffffff;" vertex="1" connectable="0" parent="9aQ4GL0z26vqEylwEJ86-16">
          <mxGeometry x="-0.4319" y="3" relative="1" as="geometry">
            <mxPoint y="13" as="offset" />
          </mxGeometry>
        </mxCell>
        <mxCell id="9aQ4GL0z26vqEylwEJ86-15" value="Nginx" style="rounded=0;whiteSpace=wrap;html=1;" vertex="1" parent="1">
          <mxGeometry x="30" y="200" width="80" height="40" as="geometry" />
        </mxCell>
        <mxCell id="9aQ4GL0z26vqEylwEJ86-19" style="edgeStyle=orthogonalEdgeStyle;rounded=0;orthogonalLoop=1;jettySize=auto;html=1;entryX=0.5;entryY=1;entryDx=0;entryDy=0;" edge="1" parent="1" source="9aQ4GL0z26vqEylwEJ86-18" target="9aQ4GL0z26vqEylwEJ86-15">
          <mxGeometry relative="1" as="geometry">
            <Array as="points">
              <mxPoint x="230" y="300" />
              <mxPoint x="70" y="300" />
            </Array>
          </mxGeometry>
        </mxCell>
        <mxCell id="9aQ4GL0z26vqEylwEJ86-20" value="http响应" style="text;html=1;align=center;verticalAlign=middle;resizable=0;points=[];labelBackgroundColor=#ffffff;" vertex="1" connectable="0" parent="9aQ4GL0z26vqEylwEJ86-19">
          <mxGeometry x="0.1713" y="1" relative="1" as="geometry">
            <mxPoint as="offset" />
          </mxGeometry>
        </mxCell>
        <mxCell id="9aQ4GL0z26vqEylwEJ86-18" value="端口" style="rounded=0;whiteSpace=wrap;html=1;" vertex="1" parent="1">
          <mxGeometry x="220" y="257.5" width="30" height="20" as="geometry" />
        </mxCell>
        <mxCell id="9aQ4GL0z26vqEylwEJ86-22" style="edgeStyle=orthogonalEdgeStyle;rounded=0;orthogonalLoop=1;jettySize=auto;html=1;entryX=0.5;entryY=1;entryDx=0;entryDy=0;" edge="1" parent="1" source="9aQ4GL0z26vqEylwEJ86-21" target="9aQ4GL0z26vqEylwEJ86-12">
          <mxGeometry relative="1" as="geometry" />
        </mxCell>
        <mxCell id="9aQ4GL0z26vqEylwEJ86-23" value="header" style="text;html=1;align=center;verticalAlign=middle;resizable=0;points=[];labelBackgroundColor=#ffffff;" vertex="1" connectable="0" parent="9aQ4GL0z26vqEylwEJ86-22">
          <mxGeometry x="0.1111" y="1" relative="1" as="geometry">
            <mxPoint x="1" y="1" as="offset" />
          </mxGeometry>
        </mxCell>
        <mxCell id="9aQ4GL0z26vqEylwEJ86-21" value="Interceptor" style="rounded=0;whiteSpace=wrap;html=1;" vertex="1" parent="1">
          <mxGeometry x="222.5" y="380" width="95" height="30" as="geometry" />
        </mxCell>
        <mxCell id="9aQ4GL0z26vqEylwEJ86-28" style="edgeStyle=orthogonalEdgeStyle;rounded=0;orthogonalLoop=1;jettySize=auto;html=1;exitX=1;exitY=0.25;exitDx=0;exitDy=0;" edge="1" parent="1" source="9aQ4GL0z26vqEylwEJ86-24" target="9aQ4GL0z26vqEylwEJ86-26">
          <mxGeometry relative="1" as="geometry" />
        </mxCell>
        <mxCell id="9aQ4GL0z26vqEylwEJ86-29" style="edgeStyle=orthogonalEdgeStyle;rounded=0;orthogonalLoop=1;jettySize=auto;html=1;exitX=1;exitY=0.75;exitDx=0;exitDy=0;entryX=0;entryY=0.5;entryDx=0;entryDy=0;" edge="1" parent="1" source="9aQ4GL0z26vqEylwEJ86-24" target="9aQ4GL0z26vqEylwEJ86-27">
          <mxGeometry relative="1" as="geometry" />
        </mxCell>
        <mxCell id="9aQ4GL0z26vqEylwEJ86-24" value="Selector" style="rounded=0;whiteSpace=wrap;html=1;" vertex="1" parent="1">
          <mxGeometry x="320" y="310" width="70" height="35" as="geometry" />
        </mxCell>
        <mxCell id="9aQ4GL0z26vqEylwEJ86-26" value="Channel" style="rounded=0;whiteSpace=wrap;html=1;" vertex="1" parent="1">
          <mxGeometry x="430" y="285" width="70" height="35" as="geometry" />
        </mxCell>
        <mxCell id="9aQ4GL0z26vqEylwEJ86-27" value="Channel" style="rounded=0;whiteSpace=wrap;html=1;" vertex="1" parent="1">
          <mxGeometry x="430" y="340" width="70" height="35" as="geometry" />
        </mxCell>
        <mxCell id="9aQ4GL0z26vqEylwEJ86-30" value="" style="rounded=0;whiteSpace=wrap;html=1;" vertex="1" parent="1">
          <mxGeometry x="530" y="335" width="170" height="105" as="geometry" />
        </mxCell>
        <mxCell id="9aQ4GL0z26vqEylwEJ86-31" value="sink group" style="text;html=1;strokeColor=none;fillColor=none;align=center;verticalAlign=middle;whiteSpace=wrap;rounded=0;" vertex="1" parent="1">
          <mxGeometry x="575" y="340" width="80" height="15" as="geometry" />
        </mxCell>
        <mxCell id="9aQ4GL0z26vqEylwEJ86-33" value="sink" style="rounded=0;whiteSpace=wrap;html=1;" vertex="1" parent="1">
          <mxGeometry x="565" y="365" width="100" height="30" as="geometry" />
        </mxCell>
        <mxCell id="9aQ4GL0z26vqEylwEJ86-34" value="sink" style="rounded=0;whiteSpace=wrap;html=1;" vertex="1" parent="1">
          <mxGeometry x="565" y="400" width="100" height="30" as="geometry" />
        </mxCell>
        <mxCell id="9aQ4GL0z26vqEylwEJ86-35" value="" style="rounded=0;whiteSpace=wrap;html=1;" vertex="1" parent="1">
          <mxGeometry x="530" y="205" width="170" height="105" as="geometry" />
        </mxCell>
        <mxCell id="9aQ4GL0z26vqEylwEJ86-36" value="sink group" style="text;html=1;strokeColor=none;fillColor=none;align=center;verticalAlign=middle;whiteSpace=wrap;rounded=0;" vertex="1" parent="1">
          <mxGeometry x="575" y="210" width="80" height="15" as="geometry" />
        </mxCell>
        <mxCell id="9aQ4GL0z26vqEylwEJ86-46" style="edgeStyle=orthogonalEdgeStyle;rounded=0;orthogonalLoop=1;jettySize=auto;html=1;entryX=0.5;entryY=1;entryDx=0;entryDy=0;" edge="1" parent="1" source="9aQ4GL0z26vqEylwEJ86-37" target="9aQ4GL0z26vqEylwEJ86-45">
          <mxGeometry relative="1" as="geometry" />
        </mxCell>
        <mxCell id="9aQ4GL0z26vqEylwEJ86-47" value="写入存储&lt;br&gt;用户行为日志" style="text;html=1;align=center;verticalAlign=middle;resizable=0;points=[];labelBackgroundColor=#ffffff;" vertex="1" connectable="0" parent="9aQ4GL0z26vqEylwEJ86-46">
          <mxGeometry x="0.1667" y="1" relative="1" as="geometry">
            <mxPoint as="offset" />
          </mxGeometry>
        </mxCell>
        <mxCell id="9aQ4GL0z26vqEylwEJ86-37" value="sink 10" style="rounded=0;whiteSpace=wrap;html=1;" vertex="1" parent="1">
          <mxGeometry x="565" y="235" width="100" height="30" as="geometry" />
        </mxCell>
        <mxCell id="9aQ4GL0z26vqEylwEJ86-38" value="sink 5" style="rounded=0;whiteSpace=wrap;html=1;" vertex="1" parent="1">
          <mxGeometry x="565" y="270" width="100" height="30" as="geometry" />
        </mxCell>
        <mxCell id="9aQ4GL0z26vqEylwEJ86-42" style="edgeStyle=orthogonalEdgeStyle;rounded=0;orthogonalLoop=1;jettySize=auto;html=1;exitX=1;exitY=0.25;exitDx=0;exitDy=0;entryX=0;entryY=0.75;entryDx=0;entryDy=0;" edge="1" parent="1" source="9aQ4GL0z26vqEylwEJ86-26" target="9aQ4GL0z26vqEylwEJ86-37">
          <mxGeometry relative="1" as="geometry">
            <Array as="points">
              <mxPoint x="500" y="290" />
              <mxPoint x="520" y="290" />
              <mxPoint x="520" y="258" />
            </Array>
          </mxGeometry>
        </mxCell>
        <mxCell id="9aQ4GL0z26vqEylwEJ86-41" style="edgeStyle=orthogonalEdgeStyle;rounded=0;orthogonalLoop=1;jettySize=auto;html=1;exitX=1;exitY=0.5;exitDx=0;exitDy=0;entryX=0;entryY=0.5;entryDx=0;entryDy=0;" edge="1" parent="1" source="9aQ4GL0z26vqEylwEJ86-26" target="9aQ4GL0z26vqEylwEJ86-38">
          <mxGeometry relative="1" as="geometry" />
        </mxCell>
        <mxCell id="9aQ4GL0z26vqEylwEJ86-44" style="edgeStyle=orthogonalEdgeStyle;rounded=0;orthogonalLoop=1;jettySize=auto;html=1;exitX=0.5;exitY=1;exitDx=0;exitDy=0;entryX=0;entryY=0.5;entryDx=0;entryDy=0;" edge="1" parent="1" source="9aQ4GL0z26vqEylwEJ86-27" target="9aQ4GL0z26vqEylwEJ86-34">
          <mxGeometry relative="1" as="geometry" />
        </mxCell>
        <mxCell id="9aQ4GL0z26vqEylwEJ86-43" style="edgeStyle=orthogonalEdgeStyle;rounded=0;orthogonalLoop=1;jettySize=auto;html=1;exitX=1;exitY=0.5;exitDx=0;exitDy=0;entryX=0;entryY=0.5;entryDx=0;entryDy=0;" edge="1" parent="1" source="9aQ4GL0z26vqEylwEJ86-27" target="9aQ4GL0z26vqEylwEJ86-33">
          <mxGeometry relative="1" as="geometry" />
        </mxCell>
        <mxCell id="9aQ4GL0z26vqEylwEJ86-45" value="hdfs" style="rounded=0;whiteSpace=wrap;html=1;" vertex="1" parent="1">
          <mxGeometry x="740" y="120" width="50" height="100" as="geometry" />
        </mxCell>
        <mxCell id="9aQ4GL0z26vqEylwEJ86-48" value="" style="rounded=0;whiteSpace=wrap;html=1;" vertex="1" parent="1">
          <mxGeometry x="50" y="500" width="340" height="170" as="geometry" />
        </mxCell>
        <mxCell id="9aQ4GL0z26vqEylwEJ86-49" value="机器" style="text;html=1;strokeColor=none;fillColor=none;align=center;verticalAlign=middle;whiteSpace=wrap;rounded=0;" vertex="1" parent="1">
          <mxGeometry x="200" y="505" width="40" height="20" as="geometry" />
        </mxCell>
        <mxCell id="9aQ4GL0z26vqEylwEJ86-50" value="" style="rounded=0;whiteSpace=wrap;html=1;" vertex="1" parent="1">
          <mxGeometry x="80" y="540" width="280" height="110" as="geometry" />
        </mxCell>
        <mxCell id="9aQ4GL0z26vqEylwEJ86-51" value="Flume 进程：Agent" style="text;html=1;strokeColor=none;fillColor=none;align=center;verticalAlign=middle;whiteSpace=wrap;rounded=0;" vertex="1" parent="1">
          <mxGeometry x="155" y="550" width="130" height="30" as="geometry" />
        </mxCell>
        <mxCell id="9aQ4GL0z26vqEylwEJ86-55" style="edgeStyle=orthogonalEdgeStyle;rounded=0;orthogonalLoop=1;jettySize=auto;html=1;exitX=1;exitY=0.5;exitDx=0;exitDy=0;entryX=0;entryY=0.5;entryDx=0;entryDy=0;" edge="1" parent="1" source="9aQ4GL0z26vqEylwEJ86-52" target="9aQ4GL0z26vqEylwEJ86-54">
          <mxGeometry relative="1" as="geometry" />
        </mxCell>
        <mxCell id="9aQ4GL0z26vqEylwEJ86-52" value="source&lt;br&gt;Avro" style="rounded=0;whiteSpace=wrap;html=1;" vertex="1" parent="1">
          <mxGeometry x="87.5" y="577.5" width="70" height="35" as="geometry" />
        </mxCell>
        <mxCell id="9aQ4GL0z26vqEylwEJ86-53" value="端口" style="rounded=0;whiteSpace=wrap;html=1;" vertex="1" parent="1">
          <mxGeometry x="72.5" y="585" width="30" height="20" as="geometry" />
        </mxCell>
        <mxCell id="9aQ4GL0z26vqEylwEJ86-57" style="edgeStyle=orthogonalEdgeStyle;rounded=0;orthogonalLoop=1;jettySize=auto;html=1;entryX=0;entryY=0.5;entryDx=0;entryDy=0;" edge="1" parent="1" source="9aQ4GL0z26vqEylwEJ86-54" target="9aQ4GL0z26vqEylwEJ86-56">
          <mxGeometry relative="1" as="geometry" />
        </mxCell>
        <mxCell id="9aQ4GL0z26vqEylwEJ86-61" style="edgeStyle=orthogonalEdgeStyle;rounded=0;orthogonalLoop=1;jettySize=auto;html=1;exitX=0.25;exitY=1;exitDx=0;exitDy=0;entryX=0.25;entryY=0;entryDx=0;entryDy=0;" edge="1" parent="1" source="9aQ4GL0z26vqEylwEJ86-54" target="9aQ4GL0z26vqEylwEJ86-60">
          <mxGeometry relative="1" as="geometry" />
        </mxCell>
        <mxCell id="9aQ4GL0z26vqEylwEJ86-54" value="Channel" style="rounded=0;whiteSpace=wrap;html=1;" vertex="1" parent="1">
          <mxGeometry x="185" y="577.5" width="70" height="35" as="geometry" />
        </mxCell>
        <mxCell id="9aQ4GL0z26vqEylwEJ86-56" value="Sink" style="rounded=0;whiteSpace=wrap;html=1;" vertex="1" parent="1">
          <mxGeometry x="280" y="577.5" width="70" height="35" as="geometry" />
        </mxCell>
        <mxCell id="9aQ4GL0z26vqEylwEJ86-62" style="edgeStyle=orthogonalEdgeStyle;rounded=0;orthogonalLoop=1;jettySize=auto;html=1;exitX=0.75;exitY=0;exitDx=0;exitDy=0;entryX=0.75;entryY=1;entryDx=0;entryDy=0;" edge="1" parent="1" source="9aQ4GL0z26vqEylwEJ86-60" target="9aQ4GL0z26vqEylwEJ86-54">
          <mxGeometry relative="1" as="geometry" />
        </mxCell>
        <mxCell id="9aQ4GL0z26vqEylwEJ86-60" value="本地磁盘" style="rounded=0;whiteSpace=wrap;html=1;" vertex="1" parent="1">
          <mxGeometry x="185" y="690" width="70" height="35" as="geometry" />
        </mxCell>
        <mxCell id="9aQ4GL0z26vqEylwEJ86-64" value="" style="rounded=0;whiteSpace=wrap;html=1;" vertex="1" parent="1">
          <mxGeometry x="440" y="500" width="340" height="170" as="geometry" />
        </mxCell>
        <mxCell id="9aQ4GL0z26vqEylwEJ86-65" value="机器" style="text;html=1;strokeColor=none;fillColor=none;align=center;verticalAlign=middle;whiteSpace=wrap;rounded=0;" vertex="1" parent="1">
          <mxGeometry x="590" y="505" width="40" height="20" as="geometry" />
        </mxCell>
        <mxCell id="9aQ4GL0z26vqEylwEJ86-66" value="" style="rounded=0;whiteSpace=wrap;html=1;" vertex="1" parent="1">
          <mxGeometry x="470" y="540" width="280" height="110" as="geometry" />
        </mxCell>
        <mxCell id="9aQ4GL0z26vqEylwEJ86-67" value="Flume 进程：Agent" style="text;html=1;strokeColor=none;fillColor=none;align=center;verticalAlign=middle;whiteSpace=wrap;rounded=0;" vertex="1" parent="1">
          <mxGeometry x="545" y="550" width="130" height="30" as="geometry" />
        </mxCell>
        <mxCell id="9aQ4GL0z26vqEylwEJ86-68" style="edgeStyle=orthogonalEdgeStyle;rounded=0;orthogonalLoop=1;jettySize=auto;html=1;exitX=1;exitY=0.5;exitDx=0;exitDy=0;entryX=0;entryY=0.5;entryDx=0;entryDy=0;" edge="1" parent="1" source="9aQ4GL0z26vqEylwEJ86-69" target="9aQ4GL0z26vqEylwEJ86-73">
          <mxGeometry relative="1" as="geometry" />
        </mxCell>
        <mxCell id="9aQ4GL0z26vqEylwEJ86-69" value="source&lt;br&gt;Avro" style="rounded=0;whiteSpace=wrap;html=1;" vertex="1" parent="1">
          <mxGeometry x="477.5" y="577.5" width="70" height="35" as="geometry" />
        </mxCell>
        <mxCell id="9aQ4GL0z26vqEylwEJ86-70" value="端口" style="rounded=0;whiteSpace=wrap;html=1;" vertex="1" parent="1">
          <mxGeometry x="462.5" y="585" width="30" height="20" as="geometry" />
        </mxCell>
        <mxCell id="9aQ4GL0z26vqEylwEJ86-71" style="edgeStyle=orthogonalEdgeStyle;rounded=0;orthogonalLoop=1;jettySize=auto;html=1;entryX=0;entryY=0.5;entryDx=0;entryDy=0;" edge="1" parent="1" source="9aQ4GL0z26vqEylwEJ86-73" target="9aQ4GL0z26vqEylwEJ86-74">
          <mxGeometry relative="1" as="geometry" />
        </mxCell>
        <mxCell id="9aQ4GL0z26vqEylwEJ86-72" style="edgeStyle=orthogonalEdgeStyle;rounded=0;orthogonalLoop=1;jettySize=auto;html=1;exitX=0.25;exitY=1;exitDx=0;exitDy=0;entryX=0.25;entryY=0;entryDx=0;entryDy=0;" edge="1" parent="1" source="9aQ4GL0z26vqEylwEJ86-73" target="9aQ4GL0z26vqEylwEJ86-76">
          <mxGeometry relative="1" as="geometry" />
        </mxCell>
        <mxCell id="9aQ4GL0z26vqEylwEJ86-73" value="Channel" style="rounded=0;whiteSpace=wrap;html=1;" vertex="1" parent="1">
          <mxGeometry x="575" y="577.5" width="70" height="35" as="geometry" />
        </mxCell>
        <mxCell id="9aQ4GL0z26vqEylwEJ86-74" value="Sink" style="rounded=0;whiteSpace=wrap;html=1;" vertex="1" parent="1">
          <mxGeometry x="670" y="577.5" width="70" height="35" as="geometry" />
        </mxCell>
        <mxCell id="9aQ4GL0z26vqEylwEJ86-75" style="edgeStyle=orthogonalEdgeStyle;rounded=0;orthogonalLoop=1;jettySize=auto;html=1;exitX=0.75;exitY=0;exitDx=0;exitDy=0;entryX=0.75;entryY=1;entryDx=0;entryDy=0;" edge="1" parent="1" source="9aQ4GL0z26vqEylwEJ86-76" target="9aQ4GL0z26vqEylwEJ86-73">
          <mxGeometry relative="1" as="geometry" />
        </mxCell>
        <mxCell id="9aQ4GL0z26vqEylwEJ86-76" value="本地磁盘" style="rounded=0;whiteSpace=wrap;html=1;" vertex="1" parent="1">
          <mxGeometry x="575" y="690" width="70" height="35" as="geometry" />
        </mxCell>
        <mxCell id="9aQ4GL0z26vqEylwEJ86-78" style="edgeStyle=orthogonalEdgeStyle;rounded=0;orthogonalLoop=1;jettySize=auto;html=1;entryX=0;entryY=0.5;entryDx=0;entryDy=0;" edge="1" parent="1" source="9aQ4GL0z26vqEylwEJ86-34" target="9aQ4GL0z26vqEylwEJ86-70">
          <mxGeometry relative="1" as="geometry">
            <Array as="points">
              <mxPoint x="680" y="415" />
              <mxPoint x="680" y="480" />
              <mxPoint x="443" y="480" />
              <mxPoint x="443" y="595" />
            </Array>
          </mxGeometry>
        </mxCell>
        <mxCell id="9aQ4GL0z26vqEylwEJ86-77" style="edgeStyle=orthogonalEdgeStyle;rounded=0;orthogonalLoop=1;jettySize=auto;html=1;entryX=0;entryY=0.5;entryDx=0;entryDy=0;" edge="1" parent="1" source="9aQ4GL0z26vqEylwEJ86-33" target="9aQ4GL0z26vqEylwEJ86-53">
          <mxGeometry relative="1" as="geometry">
            <Array as="points">
              <mxPoint x="750" y="380" />
              <mxPoint x="750" y="470" />
              <mxPoint x="53" y="470" />
              <mxPoint x="53" y="595" />
            </Array>
          </mxGeometry>
        </mxCell>
      </root>
    </mxGraphModel>
  </diagram>
</mxfile>
